<svg width="24" height="20" viewBox="0 0 24 20" fill="none" xmlns="http://www.w3.org/2000/svg">
<path fill-rule="evenodd" clip-rule="evenodd" d="M8.4551 12.8185H18.7099C19.3259 12.8189 19.8828 12.4517 20.1251 11.8853L23.2015 4.70696C23.4049 4.23159 23.3558 3.68583 23.0709 3.25435C22.786 2.82287 22.3034 2.56339 21.7864 2.56371H4.86591C4.57014 2.56752 4.28174 2.65653 4.03527 2.82008L3.00979 0.461467C2.88782 0.181994 2.61226 0.000970898 2.30733 0H0.769112C0.344343 0 0 0.344343 0 0.769112C0 1.19388 0.344343 1.53822 0.769112 1.53822H1.79459L6.47592 12.234C7.05565 13.9686 6.84183 15.8706 5.89139 17.4332C5.89017 18.4767 6.52158 19.4169 7.48804 19.8105C8.4545 20.2042 9.5631 19.9727 10.2913 19.2253C11.0196 18.4779 11.2221 17.3636 10.8035 16.4077H16.3667C15.9144 17.4443 16.1948 18.6548 17.0567 19.387C17.9187 20.1192 19.1587 20.2 20.1084 19.5859C21.0582 18.9719 21.4933 17.808 21.1794 16.7215C20.8655 15.6349 19.8767 14.8824 18.7458 14.8695H8.57816H8.47561C7.90925 14.8695 7.45013 14.4104 7.45013 13.844C7.45013 13.2776 7.90925 12.8185 8.47561 12.8185H8.4551ZM21.7864 4.10193L18.7099 11.2803H7.94236L4.86591 4.10193H21.7864ZM9.48058 17.4332C9.48058 17.9996 9.02146 18.4587 8.4551 18.4587C7.88874 18.4587 7.42962 17.9996 7.42962 17.4332C7.42962 16.8668 7.88874 16.4077 8.4551 16.4077C9.02146 16.4077 9.48058 16.8668 9.48058 17.4332ZM19.7354 17.4332C19.7354 17.9996 19.2763 18.4587 18.7099 18.4587C18.1436 18.4587 17.6844 17.9996 17.6844 17.4332C17.6844 16.8668 18.1436 16.4077 18.7099 16.4077C19.2763 16.4077 19.7354 16.8668 19.7354 17.4332Z" fill="#77838F"/>
</svg>
