<svg width="21" height="20" viewBox="0 0 21 20" fill="none" xmlns="http://www.w3.org/2000/svg">
<path opacity="0.6" fill-rule="evenodd" clip-rule="evenodd" d="M20.4837 18.586L19.0527 20L14.7584 15.758L16.1895 14.343L20.4837 18.586ZM8.33881 14C4.99086 14 2.26634 11.309 2.26634 8C2.26634 4.692 4.99086 2 8.33881 2C11.6868 2 14.4113 4.692 14.4113 8C14.4113 11.309 11.6868 14 8.33881 14ZM8.33881 0C3.86745 0 0.242188 3.582 0.242188 8C0.242188 12.418 3.86745 16 8.33881 16C12.8102 16 16.4354 12.418 16.4354 8C16.4354 3.582 12.8102 0 8.33881 0Z" fill="#222831"/>
</svg>
